<svg xmlns="http://www.w3.org/2000/svg" viewBox="0 0 58.58 60.19"><defs><style>.cls-1{fill:#47a4ad;}.cls-2{fill:#fff;}.cls-3{fill:#56c4cf;}</style></defs><g id="Layer_2" data-name="Layer 2"><g id="Layer_1-2" data-name="Layer 1"><path class="cls-1" d="M22.83,7.29A7.29,7.29,0,1,1,15.54,0,7.28,7.28,0,0,1,22.83,7.29Z"/><path class="cls-2" d="M20.5,4.42a2.7,2.7,0,1,1-2.7-2.69A2.7,2.7,0,0,1,20.5,4.42Z"/><path class="cls-2" d="M14.3,11.47A1.32,1.32,0,1,1,13,10.15,1.32,1.32,0,0,1,14.3,11.47Z"/><path class="cls-1" d="M50.45,7.24a3.84,3.84,0,0,0-.42-.5c-1.4-2-4.38-3.32-7.72-3.32-3.68,0-6.94,1.59-8.1,4a1.58,1.58,0,0,0,.73,2.12.76.76,0,0,0,.16.06,1.56,1.56,0,0,0,2-.52c.42-.6,2.42-1.49,5.38-1.49a9.09,9.09,0,0,1,5.1,1.22h0a1.58,1.58,0,0,0,.94.8,1.56,1.56,0,0,0,1.54-.14A1.58,1.58,0,0,0,50.45,7.24Z"/><path class="cls-1" d="M50,39.83A29.24,29.24,0,0,0,58.58,19.3V18H47.15V30.89a17.65,17.65,0,0,1-1.4,7,17.94,17.94,0,0,1-9.51,9.51,15.82,15.82,0,0,1-1.5.55,29,29,0,0,0,6-1.8A29.35,29.35,0,0,0,50,39.83Z"/><path class="cls-1" d="M56.27,42A29.29,29.29,0,0,1,0,32l0-.41v.33l0,.41a29.3,29.3,0,0,0,58.56-1.39v-.33A29.19,29.19,0,0,1,56.27,42Z"/><path class="cls-3" d="M34.74,47.9a30.22,30.22,0,0,1-4.25.49c-.4,0-.8,0-1.21,0s-.81,0-1.21,0a30.25,30.25,0,0,1-4.24-.49,17.73,17.73,0,0,0,10.91,0Z"/><polygon class="cls-3" points="58.58 30.56 58.58 30.34 58.58 30.56 58.58 30.56"/><path class="cls-3" d="M2.57,42.6a29.3,29.3,0,0,0,56-12V19.3A29.32,29.32,0,0,1,40.7,46.1a29,29,0,0,1-6,1.8,17.73,17.73,0,0,1-10.91,0,28.83,28.83,0,0,1-5.94-1.79A29.27,29.27,0,0,1,0,20.51l0-.41V31.54L0,32A29.23,29.23,0,0,0,2.57,42.6Z"/></g></g></svg>