<?xml version="1.0" standalone="no"?>
<!DOCTYPE svg PUBLIC "-//W3C//DTD SVG 20010904//EN"
 "http://www.w3.org/TR/2001/REC-SVG-20010904/DTD/svg10.dtd">
<svg version="1.0" xmlns="http://www.w3.org/2000/svg"
 width="960.000000pt" height="960.000000pt" viewBox="0 0 960.000000 960.000000"
 preserveAspectRatio="xMidYMid meet">
<metadata>
Created by potrace 1.14, written by Peter Selinger 2001-2017
</metadata>
<g transform="translate(0.000000,960.000000) scale(0.100000,-0.100000)"
fill="#000000" stroke="none">
<path d="M2489 9596 c-2 -2 -27 -6 -56 -10 -28 -3 -57 -8 -65 -11 -7 -2 -24
-6 -38 -9 -88 -16 -307 -112 -367 -161 -6 -5 -28 -21 -48 -35 -64 -44 -191
-173 -247 -250 -219 -301 -281 -695 -164 -1043 33 -98 70 -178 119 -257 23
-36 44 -67 47 -70 3 -3 17 -21 32 -41 88 -118 248 -244 408 -321 162 -78 318
-112 505 -111 187 1 346 38 505 117 68 33 166 96 215 136 105 87 275 288 275
326 0 7 5 14 10 16 12 4 91 183 93 210 1 10 5 18 10 18 4 0 5 5 2 10 -3 6 -3
16 2 23 4 6 8 19 10 27 1 8 9 45 16 82 23 107 13 408 -14 460 -5 9 -9 27 -9
40 0 13 -4 28 -9 34 -6 5 -12 23 -15 39 -8 46 -110 243 -161 310 -54 72 -135
157 -194 205 -23 19 -52 43 -63 52 -11 10 -29 20 -39 23 -11 4 -19 11 -19 16
0 5 -6 9 -14 9 -8 0 -16 3 -18 8 -4 10 -173 87 -233 106 -108 34 -195 48 -331
51 -78 2 -143 2 -145 1z"/>
<path d="M6746 9053 c-1 -1 -24 -4 -51 -7 -112 -12 -169 -20 -185 -26 -3 -1
-8 -2 -13 -1 -10 1 -150 -36 -212 -56 -27 -10 -52 -18 -55 -19 -44 -12 -214
-94 -260 -124 -14 -9 -43 -29 -65 -43 -174 -114 -345 -342 -348 -462 0 -25 14
-88 27 -118 45 -109 213 -180 335 -141 42 14 121 72 121 89 0 25 188 139 248
150 9 2 18 4 20 5 1 2 7 4 12 5 6 1 11 3 13 5 1 1 9 3 17 5 8 2 42 10 75 19
33 8 76 18 95 21 19 3 46 8 60 10 73 15 229 24 405 24 102 1 138 -2 205 -13
14 -2 43 -7 66 -10 23 -3 86 -19 140 -36 54 -17 106 -32 114 -34 8 -3 48 -21
88 -40 40 -20 75 -36 79 -36 3 0 36 -30 72 -68 51 -52 79 -72 120 -86 92 -33
197 -18 254 35 11 10 24 19 27 19 4 0 20 24 36 53 53 97 36 227 -42 311 -15
15 -42 49 -61 73 -85 112 -225 224 -373 301 -80 41 -170 82 -190 87 -3 0 -28
9 -56 18 -58 20 -90 28 -119 30 -11 1 -22 5 -25 8 -7 9 -177 38 -265 45 -66 6
-304 11 -309 7z"/>
<path d="M7767 6734 c-4 -4 -32 -6 -62 -5 -40 2 -55 -1 -56 -11 0 -7 -2 -519
-3 -1138 -2 -619 -6 -1152 -10 -1185 -12 -104 -14 -119 -20 -160 -3 -23 -9
-52 -11 -65 -3 -14 -8 -38 -11 -55 -3 -16 -10 -50 -15 -75 -6 -25 -13 -55 -15
-67 -2 -13 -23 -80 -45 -150 -22 -71 -41 -134 -41 -140 -1 -7 -5 -13 -10 -13
-4 0 -8 -6 -8 -14 0 -17 -29 -86 -113 -266 -52 -111 -227 -391 -274 -438 -7
-7 -13 -16 -13 -20 0 -4 -14 -23 -31 -42 -16 -19 -51 -60 -77 -90 -187 -217
-433 -424 -688 -577 -111 -67 -348 -186 -370 -186 -8 0 -14 -4 -14 -9 0 -4 -8
-8 -18 -8 -10 0 -22 -4 -28 -8 -12 -11 -104 -39 -169 -52 -27 -5 -59 -11 -70
-14 -24 -5 -109 -17 -150 -22 -16 -1 -46 -6 -65 -9 -113 -19 -296 -29 -570
-29 -305 0 -480 6 -480 15 0 4 -10 7 -22 7 -24 -1 -153 10 -153 12 0 3 -83 17
-150 26 -42 5 -183 34 -295 61 -36 8 -76 17 -89 20 -14 2 -29 6 -33 9 -5 3
-24 8 -41 11 -18 3 -34 9 -35 14 -2 5 -7 7 -11 4 -15 -9 -389 121 -551 192
-53 23 -230 106 -262 123 -16 8 -64 33 -106 55 -42 22 -78 43 -80 47 -2 5 -8
8 -14 8 -17 0 -375 225 -398 250 -3 3 -35 27 -72 53 -36 26 -72 53 -80 59 -7
7 -29 25 -50 40 -20 15 -43 34 -51 42 -8 8 -17 12 -21 9 -3 -4 -6 -2 -6 4 0 5
-37 41 -82 79 -98 82 -361 343 -438 434 -30 36 -57 67 -60 70 -3 3 -33 39 -66
80 -32 41 -63 80 -69 86 -5 6 -17 22 -25 34 -17 25 -70 97 -112 152 -15 20
-28 42 -28 47 0 6 -4 11 -9 11 -5 0 -13 9 -16 20 -3 11 -12 26 -18 33 -7 7
-20 26 -30 42 -10 17 -47 78 -82 137 -75 124 -186 338 -235 453 -19 44 -39 83
-43 86 -5 3 -8 9 -7 13 2 8 -13 51 -41 113 -39 89 -157 455 -175 543 -3 14 -8
34 -11 45 -4 11 -8 25 -9 30 -9 42 -14 63 -19 85 -5 22 -23 112 -41 204 -4 17
-7 40 -9 51 -2 18 -8 66 -21 155 -6 40 -9 62 -19 180 -4 47 -9 87 -12 89 -7 9
3 -1873 11 -1949 4 -41 9 -91 10 -110 2 -19 4 -35 6 -35 1 0 3 -13 5 -30 9
-76 14 -112 20 -137 3 -16 6 -45 8 -67 1 -21 6 -37 11 -34 5 4 6 -6 2 -21 -4
-18 -3 -25 4 -21 6 4 8 -6 5 -30 -2 -19 -1 -33 4 -31 4 3 9 -9 10 -27 3 -54 4
-57 12 -57 5 0 5 -7 2 -17 -4 -10 -2 -14 4 -10 8 5 10 -3 6 -24 -3 -19 -1 -29
5 -25 6 4 8 -3 4 -16 -3 -14 -1 -19 6 -14 8 4 10 2 6 -8 -3 -8 0 -24 6 -36 10
-18 10 -21 -2 -14 -10 6 -11 5 -1 -8 7 -8 10 -18 6 -21 -3 -4 2 -7 13 -8 18 0
18 -1 -1 -9 -11 -5 -14 -9 -7 -9 7 -1 10 -5 7 -11 -3 -5 -1 -10 5 -10 6 0 10
-8 8 -17 -2 -10 3 -24 12 -31 8 -8 9 -11 3 -7 -7 3 -13 1 -13 -4 0 -6 4 -11 9
-11 5 0 12 -7 15 -16 3 -8 2 -12 -4 -9 -6 3 -7 -1 -4 -9 3 -9 9 -14 14 -11 4
2 6 -7 4 -20 -1 -14 4 -32 12 -40 9 -8 10 -16 4 -20 -13 -8 11 -46 25 -38 5 3
5 0 -2 -7 -14 -16 4 -63 21 -53 6 4 5 0 -2 -9 -10 -13 -10 -18 -1 -24 8 -5 10
-3 4 7 -6 11 -5 12 5 2 16 -15 23 -46 9 -37 -5 3 -6 10 -3 16 4 7 2 8 -4 4
-16 -10 -15 -12 11 -37 12 -12 16 -19 10 -15 -10 5 -10 1 -4 -16 5 -13 14 -22
20 -20 6 1 11 -2 11 -7 0 -5 3 -18 6 -28 6 -16 5 -16 -9 2 -9 11 -2 -15 15
-57 18 -43 35 -73 39 -67 4 7 10 2 14 -12 4 -13 39 -86 77 -163 38 -76 67
-140 65 -142 -2 -3 -37 63 -77 146 -79 160 -107 200 -40 56 22 -47 41 -89 41
-93 1 -5 9 -19 18 -33 23 -33 61 -113 61 -128 0 -7 5 -12 10 -12 6 0 10 -7 10
-15 0 -8 4 -15 8 -15 4 0 13 -12 19 -27 14 -34 68 -128 94 -165 10 -14 19 -31
19 -37 0 -6 3 -11 8 -11 4 0 18 -20 31 -45 13 -25 28 -45 32 -45 5 0 9 -6 9
-13 0 -7 9 -23 20 -35 11 -12 20 -24 20 -27 0 -11 188 -261 253 -336 12 -14
49 -56 82 -95 73 -86 374 -387 434 -434 24 -19 51 -43 59 -52 9 -9 19 -15 24
-12 4 3 8 1 8 -4 0 -6 27 -32 61 -59 33 -26 70 -56 82 -66 12 -10 34 -26 50
-35 15 -9 27 -20 27 -24 0 -4 6 -8 14 -8 8 0 16 -4 18 -8 2 -4 39 -32 83 -62
44 -30 82 -57 85 -60 3 -3 19 -13 35 -23 17 -10 89 -53 161 -96 120 -72 458
-245 494 -253 8 -2 17 -6 20 -9 6 -6 209 -87 230 -91 8 -2 17 -5 20 -9 4 -4
177 -63 190 -64 3 0 19 -5 35 -11 31 -12 114 -38 128 -40 4 -1 8 -2 10 -3 1
-2 13 -5 27 -8 30 -6 35 -7 85 -21 22 -6 54 -14 70 -16 17 -3 41 -8 55 -12 35
-8 58 -13 115 -23 28 -5 61 -12 75 -15 54 -11 86 -16 210 -32 25 -3 56 -8 70
-10 23 -4 132 -13 235 -18 22 -1 45 -4 50 -7 15 -7 434 -3 555 5 140 10 179
14 190 21 6 3 10 1 10 -5 0 -6 5 -8 12 -4 6 4 21 8 32 9 52 6 122 16 136 20 8
2 35 6 60 9 25 3 56 8 70 11 14 3 61 12 105 21 44 8 91 18 104 20 14 3 28 7
31 9 8 5 68 17 88 18 6 0 12 3 12 7 0 4 6 7 13 7 22 1 67 11 125 29 31 10 59
18 62 19 5 1 90 27 100 30 3 1 12 4 20 7 8 3 80 29 160 58 80 29 150 56 155
60 6 4 21 11 35 15 14 4 86 37 160 73 74 35 144 68 155 74 11 5 29 14 40 21
38 24 85 47 91 46 4 0 10 3 13 8 8 10 80 53 104 60 9 3 17 9 17 14 0 5 5 9 10
9 31 0 443 293 585 415 17 14 47 40 68 58 21 18 65 58 98 89 33 32 66 61 72
66 24 15 91 92 85 97 -3 3 -32 -20 -64 -53 -68 -67 -159 -150 -229 -207 -27
-22 -53 -44 -59 -50 -23 -22 -111 -90 -199 -155 -50 -38 -97 -73 -103 -79 -7
-5 -15 -7 -18 -4 -3 4 -6 2 -6 -3 0 -5 -15 -18 -32 -29 -18 -10 -37 -23 -43
-27 -25 -22 -249 -155 -330 -197 -49 -25 -92 -49 -95 -52 -4 -5 -137 -71 -150
-74 -3 0 -30 -13 -60 -27 -117 -55 -193 -89 -209 -91 -9 -2 -26 -9 -38 -15
-13 -7 -23 -11 -23 -8 0 3 -24 -6 -52 -18 -29 -13 -57 -25 -63 -26 -5 -2 -19
-6 -30 -11 -27 -10 -126 -40 -147 -44 -9 -2 -26 -9 -37 -15 -12 -6 -21 -8 -21
-5 0 2 -17 -1 -37 -9 -34 -12 -154 -43 -193 -50 -8 -1 -24 -5 -35 -9 -19 -6
-35 -10 -100 -22 -16 -3 -53 -10 -81 -16 -139 -27 -208 -38 -216 -33 -4 3 -16
1 -26 -5 -10 -5 -49 -12 -87 -15 -39 -3 -95 -8 -125 -10 -188 -17 -620 -28
-620 -16 0 3 -24 6 -52 6 -49 1 -146 9 -243 19 -142 14 -168 18 -295 41 -47 9
-96 18 -110 20 -55 10 -67 13 -107 22 -23 5 -44 7 -48 4 -3 -3 -5 -1 -5 5 0 5
-6 10 -12 10 -16 0 -117 22 -138 30 -8 3 -24 8 -35 10 -11 2 -49 13 -85 25
-36 12 -69 23 -75 24 -47 12 -115 35 -215 74 -30 12 -59 23 -65 24 -28 8 -186
75 -217 92 -16 8 -28 12 -28 7 0 -4 -4 -3 -8 3 -4 5 -25 18 -47 28 -71 32
-190 91 -195 96 -3 3 -30 19 -60 34 -93 48 -109 57 -227 133 -28 18 -56 33
-61 33 -5 0 -12 7 -16 15 -3 8 -12 15 -20 15 -8 0 -21 6 -28 13 -7 7 -42 33
-78 57 -36 25 -67 47 -70 50 -3 3 -23 18 -46 33 -22 15 -49 35 -60 45 -10 9
-52 43 -91 75 -40 31 -83 67 -97 80 -14 12 -46 40 -72 62 -72 61 -290 280
-374 375 -41 47 -80 91 -87 98 -25 26 -181 229 -228 297 -27 39 -55 76 -62 83
-7 7 -13 17 -13 22 0 5 -6 15 -13 22 -22 23 -59 88 -50 88 6 0 16 -12 24 -28
8 -15 17 -31 22 -37 4 -5 44 -62 89 -125 45 -63 86 -116 90 -118 4 -2 8 -8 8
-13 0 -5 8 -17 18 -27 9 -10 26 -30 37 -46 25 -35 43 -56 113 -135 31 -35 66
-77 78 -93 11 -15 24 -25 27 -21 4 3 7 1 7 -5 0 -17 262 -275 385 -379 63 -52
97 -80 110 -90 6 -5 26 -21 45 -36 74 -60 87 -70 170 -128 47 -32 96 -68 110
-79 14 -11 30 -20 36 -20 6 0 19 -9 29 -20 10 -11 24 -20 32 -20 7 0 13 -3 13
-8 0 -4 9 -12 20 -17 10 -6 64 -36 118 -67 54 -31 123 -70 153 -85 30 -15 56
-30 59 -33 3 -3 22 -14 42 -23 142 -66 209 -96 211 -94 2 1 14 -5 27 -14 23
-14 151 -68 175 -73 6 -2 21 -8 35 -13 44 -20 152 -58 190 -68 3 -1 12 -4 20
-8 63 -24 315 -93 451 -123 61 -13 75 -16 94 -19 11 -2 74 -13 140 -24 66 -12
143 -24 170 -26 28 -3 66 -7 85 -10 162 -24 567 -35 770 -21 174 12 283 22
331 31 9 2 40 6 69 10 29 4 62 9 74 11 11 2 38 6 61 9 22 4 56 10 75 15 19 5
53 11 75 15 22 3 48 8 57 11 9 3 27 7 40 10 13 3 28 6 33 8 6 1 46 11 90 21
44 9 88 22 99 27 10 6 33 12 50 15 17 3 35 8 40 13 5 5 15 6 22 3 8 -3 14 1
14 8 0 7 2 10 6 7 6 -7 66 11 139 40 28 11 52 20 55 20 3 0 16 5 30 10 14 6
70 28 125 50 55 22 118 48 140 58 22 10 42 18 45 19 16 2 376 189 378 196 2 5
8 9 13 9 13 0 266 158 274 170 4 6 11 8 16 5 5 -4 9 -2 9 3 0 5 16 17 35 28
19 10 35 22 35 26 0 5 7 8 15 8 8 0 15 4 15 8 0 4 28 28 63 52 34 24 100 75
147 114 47 39 93 78 104 86 125 101 510 490 500 504 -2 4 -1 4 2 2 3 -3 22 16
41 42 20 26 43 55 52 64 20 22 28 31 76 98 22 30 43 60 48 65 4 6 31 42 58 80
28 39 55 75 61 80 19 18 -4 -17 -82 -124 -41 -57 -82 -113 -90 -125 -16 -23
-92 -118 -100 -126 -4 -3 -13 -14 -21 -26 -15 -22 -156 -178 -222 -246 -20
-22 -35 -43 -32 -48 3 -5 25 12 48 38 23 25 51 56 62 68 42 44 92 101 140 159
28 33 55 65 60 71 6 6 21 27 35 47 14 20 28 37 33 37 4 0 7 6 7 14 0 8 4 16 8
18 7 3 61 71 89 114 7 11 31 45 53 76 38 54 51 86 30 73 -15 -10 -12 -2 15 35
28 38 34 33 9 -5 -9 -14 -12 -25 -8 -25 9 1 72 98 86 131 4 9 11 20 17 24 6 3
11 14 11 23 0 9 -16 -7 -35 -35 -19 -29 -35 -57 -35 -63 0 -5 -5 -10 -11 -10
-7 0 -4 11 7 28 59 92 67 100 80 95 9 -3 14 1 14 12 0 9 -4 13 -10 10 -6 -4
-7 1 -2 12 10 26 63 113 68 113 6 0 -14 -38 -37 -72 -21 -29 -23 -38 -11 -38
5 0 22 27 38 60 16 33 32 60 37 60 4 0 7 9 7 19 0 11 5 23 11 27 6 3 8 18 5
33 -5 18 -4 22 3 12 7 -11 15 -2 35 40 15 29 24 60 21 67 -2 7 -1 11 4 7 5 -3
19 16 31 42 12 27 26 56 31 66 22 41 29 68 16 61 -6 -4 -4 2 6 14 11 11 16 25
13 31 -4 5 0 13 7 18 18 11 41 76 24 68 -7 -4 -4 0 6 8 11 9 15 21 10 32 -5
14 -3 16 7 10 10 -6 12 -3 8 13 -4 12 -2 20 3 16 9 -5 13 9 10 35 -2 8 2 10
10 5 9 -5 10 -2 5 11 -4 10 -1 25 7 34 21 24 28 51 14 51 -8 0 -8 3 2 9 8 5
11 16 8 25 -4 9 -1 15 6 13 7 -1 11 8 11 21 -1 12 3 22 8 22 6 0 8 7 4 15 -3
8 -1 15 5 15 6 0 8 9 4 21 -5 16 -4 19 6 14 9 -6 11 -4 6 8 -3 9 -2 19 4 23 6
3 8 12 5 20 -3 8 0 14 6 14 6 0 8 3 5 7 -4 3 -1 13 6 21 10 13 9 14 -2 7 -11
-6 -12 -5 -5 6 18 28 32 79 20 72 -8 -5 -8 -3 0 8 6 8 14 28 18 44 3 17 9 41
12 55 3 14 7 30 8 35 1 6 4 15 7 20 4 6 5 18 4 28 -2 9 0 17 4 17 4 0 8 12 8
28 1 15 4 41 7 57 4 17 9 41 11 55 9 42 14 73 20 115 3 22 8 54 10 70 5 31 13
104 21 190 2 28 7 75 10 105 4 30 8 574 11 1209 l4 1153 -46 -4 c-25 -2 -45 1
-45 5 0 5 -5 5 -10 2 -16 -10 -310 -11 -310 -2 0 5 -5 5 -10 2 -16 -10 -190
-11 -190 -2 0 5 -5 5 -11 1 -16 -9 -109 -11 -109 -1 0 5 -5 5 -10 2 -16 -10
-310 -11 -310 -2 0 5 -5 5 -10 2 -16 -10 -190 -11 -190 -2 0 5 -5 5 -11 1 -16
-9 -109 -11 -109 -1 0 5 -5 5 -10 2 -16 -10 -310 -11 -313 -2 -1 5 -6 5 -10 1z
m-7259 -3859 c-3 -3 -9 2 -12 12 -6 14 -5 15 5 6 7 -7 10 -15 7 -18z m8565
-45 c-3 -12 -8 -19 -11 -16 -5 6 5 36 12 36 2 0 2 -9 -1 -20z m-32 -63 c-10
-9 -11 -8 -5 6 3 10 9 15 12 12 3 -3 0 -11 -7 -18z m-70 -150 c-10 -9 -11 -8
-5 6 3 10 9 15 12 12 3 -3 0 -11 -7 -18z m-65 -115 c-17 -16 -18 -16 -5 5 7
12 15 20 18 17 3 -2 -3 -12 -13 -22z m-8195 -37 c13 -30 27 -55 32 -55 4 0 7
-4 7 -9 0 -14 67 -126 86 -146 9 -8 14 -20 12 -27 -5 -14 -80 104 -135 212
-15 30 -31 57 -35 58 -11 5 -10 22 0 22 5 0 19 -25 33 -55z"/>
</g>
</svg>
